<svg xmlns="http://www.w3.org/2000/svg" version="1.1" xmlns:xlink="http://www.w3.org/1999/xlink" xmlns:svgjs="http://svgjs.dev/svgjs" width="1440" height="560" preserveAspectRatio="none" viewBox="0 0 1440 560">
    <g mask="url(&quot;#SvgjsMask1008&quot;)" fill="none">
        <rect width="1440" height="560" x="0" y="0" fill="rgba(241, 244, 244, 1)"></rect>
        <path d="M -659.0552340368655,199 C -563.06,218.6 -371.06,285.2 -179.05523403686547,297 C 12.94,308.8 108.94,228.2 300.9447659631345,258 C 492.94,287.8 588.94,469.4 780.9447659631345,446 C 972.94,422.6 1129.13,145.2 1260.9447659631346,141 C 1392.76,136.8 1404.19,368.2 1440,425" stroke="rgba(255, 255, 255, 1)" stroke-width="2"></path>
        <path d="M -96.69730875368481,90 C -0.7,160 191.3,424.4 383.3026912463152,440 C 575.3,455.6 671.3,159.2 863.3026912463151,168 C 1055.3,176.8 1151.3,506.2 1343.3026912463151,484 C 1535.3,461.8 1803.96,80.8 1823.3026912463151,57 C 1842.64,33.2 1516.66,303.4 1440,365" stroke="rgba(255, 255, 255, 1)" stroke-width="2"></path>
        <path d="M -878.8395725186534,382 C -782.84,335.6 -590.84,141.2 -398.8395725186534,150 C -206.84,158.8 -110.84,412.8 81.16042748134657,426 C 273.16,439.2 369.16,222.6 561.1604274813466,216 C 753.16,209.4 865.39,414.2 1041.1604274813467,393 C 1216.93,371.8 1360.23,166.6 1440,110" stroke="rgba(255, 255, 255, 1)" stroke-width="2"></path>
        <path d="M -358.3275030318162,489 C -262.33,438.8 -70.33,256.8 121.67249696818381,238 C 313.67,219.2 409.67,399.8 601.6724969681839,395 C 793.67,390.2 889.67,233.6 1081.6724969681839,214 C 1273.67,194.4 1490.01,302.4 1561.6724969681839,297 C 1633.34,291.6 1464.33,209 1440,187" stroke="rgba(255, 255, 255, 1)" stroke-width="2"></path>
    </g>
    <defs>
        <mask id="SvgjsMask1008">
            <rect width="1440" height="560" fill="#ffffff"></rect>
        </mask>
    </defs>
</svg>