<svg xmlns="http://www.w3.org/2000/svg" version="1.1" xmlns:xlink="http://www.w3.org/1999/xlink" xmlns:svgjs="http://svgjs.dev/svgjs" width="1440" height="560" preserveAspectRatio="none" viewBox="0 0 1440 560">
    <g mask="url(&quot;#SvgjsMask1051&quot;)" fill="none">
        <rect width="1440" height="560" x="0" y="0" fill="rgba(216, 237, 233, 1)"></rect>
        <path d="M1061.11 282.85 a174.47 174.47 0 1 0 348.94 0 a174.47 174.47 0 1 0 -348.94 0z" fill="rgba(255, 255, 255, 0.4)" class="triangle-float1"></path>
        <path d="M447.96714100144095 383.53437489490176L349.29369725773705 489.3486884760306 455.1080108388659 588.0221322197344 553.7814545825698 482.20781863860566z" fill="rgba(255, 255, 255, 0.4)" class="triangle-float2"></path>
        <path d="M276.96 15.19 a119.23 119.23 0 1 0 238.46 0 a119.23 119.23 0 1 0 -238.46 0z" fill="rgba(255, 255, 255, 0.4)" class="triangle-float2"></path>
        <path d="M750.29 60.29 a168.1 168.1 0 1 0 336.2 0 a168.1 168.1 0 1 0 -336.2 0z" fill="rgba(255, 255, 255, 0.4)" class="triangle-float1"></path>
        <path d="M87.923,243.976C116.366,242.033,135.548,218.055,149.456,193.169C162.922,169.073,171.505,141.203,159.153,116.518C145.569,89.372,118.277,69.962,87.923,70.202C57.922,70.44,33.848,91.78,18.621,117.631C3.114,143.957,-4.821,175.916,9.873,202.705C25.043,230.361,56.453,246.126,87.923,243.976" fill="rgba(255, 255, 255, 0.4)" class="triangle-float3"></path>
        <path d="M1240.898,494.905C1262.598,494.696,1277.031,474.934,1287.468,455.908C1297.395,437.811,1303.737,416.569,1293.793,398.481C1283.549,379.847,1262.162,371.121,1240.898,371.197C1219.779,371.273,1199.008,380.45,1188.656,398.858C1178.48,416.953,1182.824,438.585,1192.743,456.822C1203.223,476.09,1218.965,495.117,1240.898,494.905" fill="rgba(255, 255, 255, 0.4)" class="triangle-float2"></path>
        <path d="M1426.456,438.342C1458.736,439.396,1481.354,409.049,1495.538,380.033C1507.859,354.828,1506.936,326.073,1493.332,301.537C1479.26,276.158,1455.46,256.368,1426.456,255.44C1395.923,254.463,1365.668,269.821,1351.731,297.006C1338.72,322.385,1351.438,350.55,1364.768,375.763C1379.441,403.517,1395.079,437.318,1426.456,438.342" fill="rgba(255, 255, 255, 0.4)" class="triangle-float2"></path>
        <path d="M996.75 545.46 a137.73 137.73 0 1 0 275.46 0 a137.73 137.73 0 1 0 -275.46 0z" fill="rgba(255, 255, 255, 0.4)" class="triangle-float1"></path>
        <path d="M-98.19754634376292 146.00509248747025L-41.37917466014818 267.8524837750662 80.46821662744779 211.03411209145148 23.649844943833045 89.18672080385551z" fill="rgba(255, 255, 255, 0.4)" class="triangle-float2"></path>
        <path d="M709.0266629251711-97.6252174675077L594.3518129081143-34.059910129064406 657.9171202465576 80.61493988799236 772.5919702636144 17.04963254954906z" fill="rgba(255, 255, 255, 0.4)" class="triangle-float2"></path>
        <path d="M-59.12 225.81 a159.21 159.21 0 1 0 318.42 0 a159.21 159.21 0 1 0 -318.42 0z" fill="rgba(255, 255, 255, 0.4)" class="triangle-float1"></path>
        <path d="M373.99 485.88 a153.98 153.98 0 1 0 307.96 0 a153.98 153.98 0 1 0 -307.96 0z" fill="rgba(255, 255, 255, 0.4)" class="triangle-float1"></path>
        <path d="M1322.979787200402 152.48215061829302L1230.8106264914888 92.62679779528325 1170.955273668479 184.79595850419628 1263.1244343773922 244.65131132720603z" fill="rgba(255, 255, 255, 0.4)" class="triangle-float2"></path>
        <path d="M33.51 427.47 a95.53 95.53 0 1 0 191.06 0 a95.53 95.53 0 1 0 -191.06 0z" fill="rgba(255, 255, 255, 0.4)" class="triangle-float1"></path>
        <path d="M-32.25 27.75 a164.77 164.77 0 1 0 329.54 0 a164.77 164.77 0 1 0 -329.54 0z" fill="rgba(255, 255, 255, 0.4)" class="triangle-float2"></path>
        <path d="M1174.737855989195 381.42023176998794L1278.126434776069 376.0018659525381 1272.7080689586192 272.613287165664 1169.319490171745 278.0316529831139z" fill="rgba(255, 255, 255, 0.4)" class="triangle-float3"></path>
        <path d="M48.834,424.77C78.26,425.361,109.497,419.18,125.424,394.43C142.495,367.902,140.18,333.884,125.179,306.133C109.352,276.854,82.114,252.328,48.834,252.745C16.098,253.155,-9.28,278.898,-24.27,308.004C-37.924,334.515,-38.429,366.181,-22.605,391.456C-7.661,415.325,20.679,424.204,48.834,424.77" fill="rgba(255, 255, 255, 0.4)" class="triangle-float2"></path>
    </g>
    <defs>
        <mask id="SvgjsMask1051">
            <rect width="1440" height="560" fill="#ffffff"></rect>
        </mask>
    </defs>
</svg>